<svg width="25" height="24" viewBox="0 0 25 24" fill="none" xmlns="http://www.w3.org/2000/svg">
<g clip-path="url(#clip0_0_891)">
<path d="M2 18C2.00129 18.6298 2.13558 19.2522 2.39407 19.8264C2.65256 20.4007 3.02943 20.9139 3.5 21.3324V23.25C3.5 23.4489 3.57902 23.6397 3.71967 23.7804C3.86032 23.921 4.05109 24 4.25 24H5.75C5.94891 24 6.13968 23.921 6.28033 23.7804C6.42098 23.6397 6.5 23.4489 6.5 23.25V22.5H18.5V23.25C18.5 23.4489 18.579 23.6397 18.7197 23.7804C18.8603 23.921 19.0511 24 19.25 24H20.75C20.9489 24 21.1397 23.921 21.2803 23.7804C21.421 23.6397 21.5 23.4489 21.5 23.25V21.3324C21.9706 20.9139 22.3474 20.4007 22.6059 19.8264C22.8644 19.2522 22.9987 18.6298 23 18V15.75H2V18ZM23.75 12H4.25V3.24612C4.25043 3.04928 4.30914 2.85697 4.41873 2.69345C4.52832 2.52994 4.68388 2.40254 4.86579 2.32733C5.0477 2.25212 5.24781 2.23246 5.44087 2.27085C5.63394 2.30923 5.81131 2.40392 5.95062 2.54299L6.85391 3.44581C6.23844 4.84643 6.49719 6.21659 7.25797 7.18315L7.25 7.19112C7.10988 7.3317 7.03121 7.52209 7.03121 7.72057C7.03121 7.91905 7.10988 8.10944 7.25 8.25002L7.78016 8.78018C7.8498 8.84984 7.93249 8.9051 8.02349 8.94281C8.1145 8.98051 8.21204 8.99991 8.31055 8.99991C8.40905 8.99991 8.50659 8.98051 8.5976 8.94281C8.6886 8.9051 8.77129 8.84984 8.84094 8.78018L13.7802 3.84096C13.8498 3.77132 13.9051 3.68863 13.9428 3.59762C13.9805 3.50662 13.9999 3.40908 13.9999 3.31057C13.9999 3.21207 13.9805 3.11453 13.9428 3.02352C13.9051 2.93251 13.8498 2.84983 13.7802 2.78018L13.25 2.25003C13.1094 2.10948 12.9187 2.03053 12.7198 2.03053C12.521 2.03053 12.3303 2.10948 12.1897 2.25003L12.1817 2.25799C11.2152 1.49721 9.84594 1.23846 8.44438 1.85393L7.54156 0.95065C7.08759 0.496622 6.50916 0.187418 5.87945 0.0621447C5.24973 -0.0631287 4.59701 0.00115528 4.00383 0.246866C3.41065 0.492578 2.90366 0.908679 2.54698 1.44255C2.1903 1.97641 1.99995 2.60406 2 3.24612V12H1.25C1.05109 12 0.860322 12.079 0.71967 12.2197C0.579018 12.3603 0.5 12.5511 0.5 12.75L0.5 13.5C0.5 13.6989 0.579018 13.8897 0.71967 14.0304C0.860322 14.171 1.05109 14.25 1.25 14.25H23.75C23.9489 14.25 24.1397 14.171 24.2803 14.0304C24.421 13.8897 24.5 13.6989 24.5 13.5V12.75C24.5 12.5511 24.421 12.3603 24.2803 12.2197C24.1397 12.079 23.9489 12 23.75 12Z" fill="url(#paint0_linear_0_891)"/>
</g>
<defs>
<linearGradient id="paint0_linear_0_891" x1="12.5" y1="-0.000244141" x2="12.5" y2="24" gradientUnits="userSpaceOnUse">
<stop stop-color="#99FF75"/>
<stop offset="0.90983" stop-color="#68C945"/>
</linearGradient>
<clipPath id="clip0_0_891">
<rect width="24" height="24" fill="white" transform="translate(0.5)"/>
</clipPath>
</defs>
</svg>
