<svg width="335" height="58" viewBox="0 0 335 58" fill="none" xmlns="http://www.w3.org/2000/svg">
<path d="M34.0004 14.7144L49.6801 29.2396C49.8844 29.4288 50.0006 29.6947 50.0006 29.9732V52C50.0006 52.5523 49.5528 53 49.0006 53H16.5726C16.0203 53 15.5726 52.5523 15.5726 52V30.0154C15.5726 29.7125 15.7098 29.426 15.9458 29.2362L34.0004 14.7144ZM34.0004 14.7144L24.713 5.62974C24.3471 5.27179 23.7699 5.24799 23.3757 5.57458L2.36199 22.9854C2.1327 23.1754 2 23.4577 2 23.7555V53" stroke="white" stroke-width="4" stroke-linecap="round"/>
<path d="M87.2664 55.636C85.7944 55.636 84.3544 55.46 82.9464 55.108C81.5704 54.756 80.3384 54.228 79.2504 53.524L80.8344 49.78C81.6024 50.388 82.4984 50.884 83.5224 51.268C84.5464 51.684 85.7944 51.892 87.2664 51.892C89.5384 51.892 91.3144 51.284 92.5944 50.068C93.9064 48.884 94.5624 46.98 94.5624 44.356V41.284C93.9224 42.052 92.9944 42.788 91.7784 43.492C90.5944 44.164 89.1704 44.5 87.5064 44.5C85.6184 44.5 83.8264 44.02 82.1304 43.06C80.4344 42.068 79.0584 40.628 78.0024 38.74C76.9464 36.852 76.4184 34.58 76.4184 31.924C76.4184 29.428 76.9304 27.204 77.9544 25.252C79.0104 23.3 80.4184 21.764 82.1784 20.644C83.9384 19.524 85.8744 18.964 87.9864 18.964C89.3944 18.964 90.6744 19.204 91.8264 19.684C92.9784 20.164 93.9704 20.756 94.8024 21.46V19.54H98.7384V43.924C98.7384 46.676 98.2584 48.916 97.2984 50.644C96.3384 52.372 94.9944 53.636 93.2664 54.436C91.5704 55.236 89.5704 55.636 87.2664 55.636ZM88.4664 40.66C89.7464 40.66 90.8984 40.372 91.9224 39.796C92.9464 39.22 93.7784 38.548 94.4184 37.78V24.724C93.7144 24.212 92.8664 23.748 91.8744 23.332C90.8824 22.916 89.7304 22.708 88.4184 22.708C87.1064 22.708 85.8744 23.06 84.7224 23.764C83.5704 24.468 82.6264 25.492 81.8904 26.836C81.1864 28.148 80.8344 29.764 80.8344 31.684C80.8344 33.508 81.1864 35.092 81.8904 36.436C82.6264 37.78 83.5704 38.82 84.7224 39.556C85.8744 40.292 87.1224 40.66 88.4664 40.66ZM106.176 44.5V19.54H110.352V24.964C110.768 23.908 111.328 22.932 112.032 22.036C112.736 21.108 113.616 20.372 114.672 19.828C115.728 19.252 116.96 18.964 118.368 18.964C118.848 18.964 119.328 18.996 119.808 19.06C120.288 19.092 120.688 19.156 121.008 19.252L119.712 23.716C119.104 23.46 118.384 23.332 117.552 23.332C116.368 23.332 115.232 23.668 114.144 24.34C113.088 25.012 112.208 26.052 111.504 27.46C110.832 28.868 110.496 30.66 110.496 32.836V44.5H106.176ZM133.879 45.076C130.295 45.076 127.447 43.94 125.335 41.668C123.255 39.364 122.215 36.148 122.215 32.02C122.215 29.524 122.679 27.3 123.607 25.348C124.567 23.364 125.895 21.812 127.591 20.692C129.287 19.54 131.255 18.964 133.495 18.964C135.895 18.964 137.879 19.492 139.447 20.548C141.047 21.572 142.247 22.964 143.047 24.724C143.847 26.484 144.247 28.42 144.247 30.532C144.247 31.652 144.199 32.74 144.103 33.796H126.631C126.919 36.132 127.735 37.956 129.079 39.268C130.423 40.58 132.199 41.236 134.407 41.236C135.847 41.236 137.143 41.092 138.295 40.804C139.447 40.484 140.551 40.084 141.607 39.604L142.615 43.3C141.463 43.812 140.167 44.228 138.727 44.548C137.287 44.9 135.671 45.076 133.879 45.076ZM126.583 30.292H140.263C140.263 27.86 139.655 25.988 138.439 24.676C137.223 23.364 135.543 22.708 133.399 22.708C131.543 22.708 130.007 23.364 128.791 24.676C127.575 25.956 126.839 27.828 126.583 30.292ZM159.989 45.076C156.405 45.076 153.557 43.94 151.445 41.668C149.365 39.364 148.325 36.148 148.325 32.02C148.325 29.524 148.789 27.3 149.717 25.348C150.677 23.364 152.005 21.812 153.701 20.692C155.397 19.54 157.365 18.964 159.605 18.964C162.005 18.964 163.989 19.492 165.557 20.548C167.157 21.572 168.357 22.964 169.157 24.724C169.957 26.484 170.357 28.42 170.357 30.532C170.357 31.652 170.309 32.74 170.213 33.796H152.741C153.029 36.132 153.845 37.956 155.189 39.268C156.533 40.58 158.309 41.236 160.517 41.236C161.957 41.236 163.253 41.092 164.405 40.804C165.557 40.484 166.661 40.084 167.717 39.604L168.725 43.3C167.573 43.812 166.277 44.228 164.837 44.548C163.397 44.9 161.781 45.076 159.989 45.076ZM152.693 30.292H166.373C166.373 27.86 165.765 25.988 164.549 24.676C163.333 23.364 161.653 22.708 159.509 22.708C157.653 22.708 156.117 23.364 154.901 24.676C153.685 25.956 152.949 27.828 152.693 30.292ZM176.114 44.5V19.54H180.29V23.716C181.186 22.372 182.322 21.252 183.698 20.356C185.106 19.428 186.77 18.964 188.69 18.964C191.506 18.964 193.602 19.812 194.978 21.508C196.386 23.204 197.09 25.444 197.09 28.228V44.5H192.77V28.708C192.77 26.916 192.338 25.476 191.474 24.388C190.642 23.3 189.474 22.756 187.97 22.756C186.498 22.756 185.106 23.284 183.794 24.34C182.482 25.364 181.362 26.58 180.434 27.988V44.5H176.114ZM205 44.5V24.196H201.16V20.452H205V17.524C205 14.708 205.784 12.484 207.352 10.852C208.92 9.22 210.968 8.404 213.496 8.404C214.808 8.404 215.96 8.564 216.952 8.884C217.944 9.172 218.888 9.54 219.784 9.988L218.488 13.636C217.816 13.284 217.096 12.964 216.328 12.676C215.56 12.388 214.712 12.244 213.784 12.244C212.44 12.244 211.352 12.676 210.52 13.54C209.72 14.372 209.32 15.604 209.32 17.236V20.452H216.712V24.196H209.32V44.5H205ZM221.208 44.5V19.54H225.384V24.964C225.8 23.908 226.36 22.932 227.064 22.036C227.768 21.108 228.648 20.372 229.704 19.828C230.76 19.252 231.992 18.964 233.4 18.964C233.88 18.964 234.36 18.996 234.84 19.06C235.32 19.092 235.72 19.156 236.04 19.252L234.744 23.716C234.136 23.46 233.416 23.332 232.584 23.332C231.4 23.332 230.264 23.668 229.176 24.34C228.12 25.012 227.24 26.052 226.536 27.46C225.864 28.868 225.528 30.66 225.528 32.836V44.5H221.208ZM248.478 45.076C246.398 45.076 244.51 44.548 242.814 43.492C241.118 42.436 239.758 40.948 238.734 39.028C237.742 37.076 237.246 34.788 237.246 32.164C237.246 29.668 237.742 27.428 238.734 25.444C239.758 23.46 241.15 21.892 242.91 20.74C244.702 19.556 246.75 18.964 249.054 18.964C250.494 18.964 251.79 19.22 252.942 19.732C254.126 20.212 255.15 20.82 256.014 21.556V19.54H259.95V38.452C259.95 39.668 260.238 40.468 260.814 40.852C261.422 41.204 262.078 41.38 262.782 41.38L261.87 44.74C258.798 44.74 256.942 43.492 256.302 40.996C255.566 42.02 254.558 42.964 253.278 43.828C252.03 44.66 250.43 45.076 248.478 45.076ZM249.438 41.236C250.654 41.236 251.806 40.948 252.894 40.372C253.982 39.764 254.894 39.012 255.63 38.116V24.724C254.766 24.116 253.806 23.636 252.75 23.284C251.726 22.9 250.638 22.708 249.486 22.708C247.95 22.708 246.59 23.108 245.406 23.908C244.254 24.676 243.342 25.764 242.67 27.172C241.998 28.548 241.662 30.164 241.662 32.02C241.662 33.812 241.998 35.412 242.67 36.82C243.342 38.196 244.27 39.284 245.454 40.084C246.638 40.852 247.966 41.236 249.438 41.236ZM268.551 44.5V19.54H272.727V23.716C273.623 22.372 274.759 21.252 276.135 20.356C277.511 19.428 279.079 18.964 280.839 18.964C282.823 18.964 284.439 19.444 285.687 20.404C286.967 21.364 287.863 22.644 288.375 24.244C289.367 22.772 290.535 21.524 291.879 20.5C293.255 19.476 294.951 18.964 296.967 18.964C299.687 18.964 301.703 19.828 303.015 21.556C304.359 23.252 305.031 25.476 305.031 28.228V44.5H300.711V28.564C300.711 26.836 300.311 25.444 299.511 24.388C298.711 23.3 297.607 22.756 296.199 22.756C294.759 22.756 293.415 23.3 292.167 24.388C290.951 25.444 289.879 26.692 288.951 28.132V44.5H284.631V28.564C284.631 26.836 284.231 25.444 283.431 24.388C282.631 23.3 281.527 22.756 280.119 22.756C278.711 22.756 277.383 23.284 276.135 24.34C274.887 25.364 273.799 26.58 272.871 27.988V44.5H268.551ZM322.457 45.076C318.873 45.076 316.025 43.94 313.913 41.668C311.833 39.364 310.793 36.148 310.793 32.02C310.793 29.524 311.257 27.3 312.185 25.348C313.145 23.364 314.473 21.812 316.169 20.692C317.865 19.54 319.833 18.964 322.073 18.964C324.473 18.964 326.457 19.492 328.025 20.548C329.625 21.572 330.825 22.964 331.625 24.724C332.425 26.484 332.825 28.42 332.825 30.532C332.825 31.652 332.777 32.74 332.681 33.796H315.209C315.497 36.132 316.313 37.956 317.657 39.268C319.001 40.58 320.777 41.236 322.985 41.236C324.425 41.236 325.721 41.092 326.873 40.804C328.025 40.484 329.129 40.084 330.185 39.604L331.193 43.3C330.041 43.812 328.745 44.228 327.305 44.548C325.865 44.9 324.249 45.076 322.457 45.076ZM315.161 30.292H328.841C328.841 27.86 328.233 25.988 327.017 24.676C325.801 23.364 324.121 22.708 321.977 22.708C320.121 22.708 318.585 23.364 317.369 24.676C316.153 25.956 315.417 27.828 315.161 30.292Z" fill="white"/>
</svg>
